<svg width="180" height="180" viewBox="0 0 180 180" xmlns="http://www.w3.org/2000/svg">
<defs>
  <filter id="shadow"><feDropShadow dx="3" dy="5" stdDeviation="4" flood-opacity="0.35"/></filter>
  <radialGradient id="grad" cx="35%" cy="25%">
    <stop offset="0%" stop-color="#707070"/>
    <stop offset="58%" stop-color="#232323"/>
    <stop offset="100%" stop-color="#151515"/>
  </radialGradient>
</defs>
<circle cx="90" cy="90" r="78" fill="url(#grad)" stroke="#f5f5f5" stroke-width="3" filter="url(#shadow)"/>
<g fill="#f5f5f5">
  <rect x="84" y="7" width="12" height="30" rx="4"/>
  <rect x="84" y="143" width="12" height="30" rx="4"/>
  <rect x="7" y="84" width="30" height="12" rx="4"/>
  <rect x="143" y="84" width="30" height="12" rx="4"/>
  <rect x="29" y="27" width="12" height="30" rx="4" transform="rotate(-45 35 42)"/>
  <rect x="139" y="123" width="12" height="30" rx="4" transform="rotate(-45 145 138)"/>
  <rect x="139" y="27" width="12" height="30" rx="4" transform="rotate(45 145 42)"/>
  <rect x="29" y="123" width="12" height="30" rx="4" transform="rotate(45 35 138)"/>
</g>
<circle cx="90" cy="90" r="53" fill="#232323" stroke="#f5f5f5" stroke-width="6"/>
<circle cx="90" cy="90" r="35" fill="#151515" stroke="#707070" stroke-width="3"/>
<text x="90" y="103" text-anchor="middle" font-family="Inter, Arial, sans-serif" font-weight="800" font-size="38" fill="white">4</text>
</svg>