<svg xmlns="http://www.w3.org/2000/svg" width="760" height="546">
<rect width="100%" height="100%" fill="#050914"/>
<rect x="6" y="6" rx="10" width="178" height="66" fill="#020817"/>
<text x="18" y="48" font-family="Inter,Arial" font-weight="700" font-size="16" fill="white">#020817</text>
<rect x="196" y="6" rx="10" width="178" height="66" fill="#030B1A"/>
<text x="208" y="48" font-family="Inter,Arial" font-weight="700" font-size="16" fill="white">#030B1A</text>
<rect x="386" y="6" rx="10" width="178" height="66" fill="#06142B"/>
<text x="398" y="48" font-family="Inter,Arial" font-weight="700" font-size="16" fill="white">#06142B</text>
<rect x="576" y="6" rx="10" width="178" height="66" fill="#071B38"/>
<text x="588" y="48" font-family="Inter,Arial" font-weight="700" font-size="16" fill="white">#071B38</text>
<rect x="6" y="84" rx="10" width="178" height="66" fill="#0A1F3F"/>
<text x="18" y="126" font-family="Inter,Arial" font-weight="700" font-size="16" fill="white">#0A1F3F</text>
<rect x="196" y="84" rx="10" width="178" height="66" fill="#0D2D57"/>
<text x="208" y="126" font-family="Inter,Arial" font-weight="700" font-size="16" fill="white">#0D2D57</text>
<rect x="386" y="84" rx="10" width="178" height="66" fill="#0B3D75"/>
<text x="398" y="126" font-family="Inter,Arial" font-weight="700" font-size="16" fill="white">#0B3D75</text>
<rect x="576" y="84" rx="10" width="178" height="66" fill="#006DFF"/>
<text x="588" y="126" font-family="Inter,Arial" font-weight="700" font-size="16" fill="white">#006DFF</text>
<rect x="6" y="162" rx="10" width="178" height="66" fill="#00B7FF"/>
<text x="18" y="204" font-family="Inter,Arial" font-weight="700" font-size="16" fill="white">#00B7FF</text>
<rect x="196" y="162" rx="10" width="178" height="66" fill="#00E5FF"/>
<text x="208" y="204" font-family="Inter,Arial" font-weight="700" font-size="16" fill="white">#00E5FF</text>
<rect x="386" y="162" rx="10" width="178" height="66" fill="#D7E9FF"/>
<text x="398" y="204" font-family="Inter,Arial" font-weight="700" font-size="16" fill="white">#D7E9FF</text>
<rect x="576" y="162" rx="10" width="178" height="66" fill="#FFFFFF"/>
<text x="588" y="204" font-family="Inter,Arial" font-weight="700" font-size="16" fill="white">#FFFFFF</text>
<rect x="6" y="240" rx="10" width="178" height="66" fill="#FFD05A"/>
<text x="18" y="282" font-family="Inter,Arial" font-weight="700" font-size="16" fill="white">#FFD05A</text>
<rect x="196" y="240" rx="10" width="178" height="66" fill="#FFB02E"/>
<text x="208" y="282" font-family="Inter,Arial" font-weight="700" font-size="16" fill="white">#FFB02E</text>
<rect x="386" y="240" rx="10" width="178" height="66" fill="#FF9D2E"/>
<text x="398" y="282" font-family="Inter,Arial" font-weight="700" font-size="16" fill="white">#FF9D2E</text>
<rect x="576" y="240" rx="10" width="178" height="66" fill="#FF6B3D"/>
<text x="588" y="282" font-family="Inter,Arial" font-weight="700" font-size="16" fill="white">#FF6B3D</text>
<rect x="6" y="318" rx="10" width="178" height="66" fill="#FF4A3D"/>
<text x="18" y="360" font-family="Inter,Arial" font-weight="700" font-size="16" fill="white">#FF4A3D</text>
<rect x="196" y="318" rx="10" width="178" height="66" fill="#00FF9D"/>
<text x="208" y="360" font-family="Inter,Arial" font-weight="700" font-size="16" fill="white">#00FF9D</text>
<rect x="386" y="318" rx="10" width="178" height="66" fill="#17D465"/>
<text x="398" y="360" font-family="Inter,Arial" font-weight="700" font-size="16" fill="white">#17D465</text>
<rect x="576" y="318" rx="10" width="178" height="66" fill="#0B5C3B"/>
<text x="588" y="360" font-family="Inter,Arial" font-weight="700" font-size="16" fill="white">#0B5C3B</text>
<rect x="6" y="396" rx="10" width="178" height="66" fill="#0F7A4D"/>
<text x="18" y="438" font-family="Inter,Arial" font-weight="700" font-size="16" fill="white">#0F7A4D</text>
<rect x="196" y="396" rx="10" width="178" height="66" fill="#062617"/>
<text x="208" y="438" font-family="Inter,Arial" font-weight="700" font-size="16" fill="white">#062617</text>
<rect x="386" y="396" rx="10" width="178" height="66" fill="#7C4DFF"/>
<text x="398" y="438" font-family="Inter,Arial" font-weight="700" font-size="16" fill="white">#7C4DFF</text>
<rect x="576" y="396" rx="10" width="178" height="66" fill="#B14DFF"/>
<text x="588" y="438" font-family="Inter,Arial" font-weight="700" font-size="16" fill="white">#B14DFF</text>
<rect x="6" y="474" rx="10" width="178" height="66" fill="#111827"/>
<text x="18" y="516" font-family="Inter,Arial" font-weight="700" font-size="16" fill="white">#111827</text>
<rect x="196" y="474" rx="10" width="178" height="66" fill="#1F2937"/>
<text x="208" y="516" font-family="Inter,Arial" font-weight="700" font-size="16" fill="white">#1F2937</text>
</svg>